<?xml version="1.0" standalone="no"?>
<!DOCTYPE svg PUBLIC "-//W3C//DTD SVG 20010904//EN"
 "http://www.w3.org/TR/2001/REC-SVG-20010904/DTD/svg10.dtd">
<svg version="1.0" xmlns="http://www.w3.org/2000/svg"
 width="1024.000000pt" height="1024.000000pt" viewBox="0 0 1024.000000 1024.000000"
 preserveAspectRatio="xMidYMid meet">
<metadata>
Created by potrace 1.14, written by Peter Selinger 2001-2017
</metadata>
<g transform="translate(0.000000,1024.000000) scale(0.100000,-0.100000)"
fill="#000000" stroke="none">
<path d="M0 5120 l0 -5120 5120 0 5120 0 0 5120 0 5120 -5120 0 -5120 0 0
-5120z m2145 3087 l520 -528 3 302 c2 272 1 303 -14 314 -12 8 -15 19 -10 39
6 24 11 27 39 24 26 -2 33 -8 35 -29 2 -14 -4 -31 -12 -39 -14 -11 -16 -54
-16 -324 l1 -311 59 -63 60 -62 106 90 c59 49 111 90 116 90 4 0 8 176 8 391
0 257 3 388 10 384 6 -4 10 -142 10 -380 l0 -374 78 58 c271 201 677 404 1012
504 311 94 532 127 890 134 384 8 645 -18 941 -92 218 -54 532 -170 667 -246
l53 -30 237 233 c320 316 365 357 375 351 5 -3 -54 -69 -132 -147 l-141 -141
0 -246 0 -245 118 -86 c169 -124 301 -236 434 -370 l117 -118 368 0 c356 0
369 1 386 20 21 25 39 25 61 1 22 -24 18 -49 -11 -68 -19 -13 -24 -12 -42 6
-20 20 -33 20 -385 23 -323 3 -363 1 -353 -12 7 -8 35 -42 63 -75 240 -281
463 -669 581 -1010 132 -386 181 -719 170 -1155 -11 -384 -66 -678 -194 -1020
-214 -572 -619 -1114 -1130 -1509 l-83 -64 0 -251 0 -251 87 -87 88 -88 357 0
358 0 2 185 c1 102 2 203 3 224 0 38 -8 48 -257 304 -142 146 -258 267 -258
269 0 3 215 6 477 7 459 2 478 3 491 22 25 35 72 18 72 -28 0 -33 -35 -49 -65
-29 -21 14 -83 16 -482 16 l-457 0 252 -253 252 -253 0 -247 0 -247 -379 0
-379 0 -95 101 -94 102 4 243 c3 134 3 244 0 244 -4 0 -34 -20 -69 -44 -391
-271 -904 -471 -1403 -547 -201 -30 -658 -38 -876 -15 -401 44 -790 157 -1134
328 -55 28 -112 59 -126 69 l-25 18 -250 -250 -249 -249 -252 0 -253 0 0 403
0 403 96 95 96 94 -441 3 c-384 2 -444 0 -457 -13 -31 -30 -74 -11 -74 32 0
16 9 27 26 35 23 11 29 10 44 -10 l19 -22 470 2 c259 2 471 1 471 -2 0 -3 -52
-57 -115 -120 l-115 -115 2 -375 3 -375 235 -3 234 -2 92 91 93 92 -3 261 c-1
144 0 324 4 401 l7 140 2 -150 c1 -82 2 -238 2 -345 0 -107 3 -216 7 -243 l7
-47 138 138 138 138 -84 51 c-91 56 -191 132 -184 139 4 4 72 -38 262 -161 18
-12 28 -5 117 83 54 53 101 93 104 89 4 -4 -3 -18 -15 -31 -13 -14 -20 -29
-17 -35 4 -6 1 -9 -6 -6 -7 3 -41 -23 -76 -58 l-63 -64 23 -15 c95 -62 397
-195 574 -251 161 -52 387 -105 539 -126 343 -49 769 -43 1105 15 439 76 909
267 1295 526 l80 54 5 199 c3 110 7 171 8 135 1 -36 5 -122 9 -191 l6 -127
113 89 c291 230 604 579 799 889 85 136 233 435 284 575 280 764 264 1616 -46
2344 -225 529 -610 1012 -1098 1377 l-150 112 -3 -69 c-4 -92 -22 -80 -22 14
l0 72 -113 67 c-61 36 -131 77 -154 90 l-42 23 -60 -59 c-33 -33 -57 -64 -54
-69 3 -6 2 -7 -4 -4 -5 3 -25 -10 -44 -29 -39 -41 -89 -79 -89 -68 0 4 52 60
115 124 l115 116 -77 39 c-215 106 -531 211 -782 259 -299 58 -334 61 -696 61
-368 -1 -470 -10 -745 -71 -422 -94 -840 -283 -1235 -559 l-95 -66 0 -239 0
-240 -32 -13 c-47 -20 -307 -291 -414 -433 -95 -125 -194 -270 -234 -341 -22
-41 -46 -60 -34 -28 4 8 9 15 13 15 4 0 8 6 8 13 0 22 114 203 203 321 129
170 218 272 351 399 l120 115 -2 206 -1 206 -60 -47 c-97 -76 -265 -235 -371
-351 -471 -513 -763 -1131 -842 -1779 -119 -977 205 -1918 920 -2672 50 -53
77 -87 60 -77 -64 40 -300 309 -421 481 -541 764 -729 1697 -524 2595 106 462
318 890 643 1295 l104 130 -360 3 c-314 2 -362 0 -370 -13 -10 -19 -51 -19
-67 0 -17 20 -5 62 21 70 14 5 28 0 43 -14 22 -21 30 -21 387 -21 200 0 369 4
374 8 6 4 57 56 114 114 l104 107 -596 602 c-329 331 -597 606 -597 611 0 5 6
8 13 6 6 -2 246 -241 532 -531z m6555 474 c0 -5 -210 -218 -467 -473 -609
-604 -691 -683 -699 -675 -4 4 13 28 38 55 l45 48 -5 369 c-4 298 -8 374 -19
392 -21 31 -2 63 37 63 23 0 31 -5 36 -25 4 -17 1 -32 -10 -44 -14 -16 -16
-56 -14 -374 l3 -355 520 513 c286 283 523 514 528 515 4 0 7 -4 7 -9z m-6379
-260 c41 -41 40 -91 -1 -133 -27 -27 -36 -30 -73 -25 -54 7 -77 35 -77 92 0
36 5 48 31 69 41 35 83 34 120 -3z m5806 5 c23 -20 28 -32 28 -71 0 -39 -5
-51 -29 -72 -39 -33 -100 -27 -133 12 -75 87 47 206 134 131z m-2982 -193
c-151 -4 -400 -23 -495 -39 -100 -16 -123 -17 -116 -5 6 9 119 24 291 40 50 5
164 8 255 8 91 -1 120 -2 65 -4z m243 -10 c-10 -2 -26 -2 -35 0 -10 3 -2 5 17
5 19 0 27 -2 18 -5z m-868 -43 c0 -5 -10 -10 -22 -10 -19 0 -20 2 -8 10 19 13
30 13 30 0z m626 -89 c11 9 14 7 14 -9 0 -15 -6 -20 -20 -19 -13 1 -20 8 -19
22 0 11 3 14 6 7 4 -10 8 -10 19 -1z m7 -48 c-7 -2 -19 -2 -25 0 -7 3 -2 5 12
5 14 0 19 -2 13 -5z m-1144 -141 c12 -22 -3 -42 -31 -42 -21 0 -33 22 -24 45
8 21 43 19 55 -3z m116 -74 c-50 -51 -91 -94 -92 -97 -2 -2 -5 -2 -8 1 -3 2
20 30 50 62 30 31 55 59 55 61 0 11 34 44 41 40 4 -3 12 2 19 10 7 8 15 15 19
15 3 0 -35 -41 -84 -92z m2209 73 c20 -22 14 -41 -12 -41 -13 0 -14 2 -4 8 16
11 6 39 -13 39 -8 0 -15 -7 -15 -15 0 -9 -3 -13 -6 -9 -10 10 4 37 19 37 8 0
22 -9 31 -19z m538 -155 c3 2 17 -7 31 -20 15 -14 27 -23 27 -20 0 3 27 -14
60 -37 33 -23 60 -46 60 -51 0 -5 4 -7 9 -3 5 3 19 -7 30 -21 12 -15 21 -23
21 -18 1 5 9 -1 19 -13 10 -12 20 -20 23 -18 2 2 28 -18 58 -45 29 -28 56 -50
59 -50 3 0 24 -18 46 -39 22 -22 64 -61 92 -86 29 -26 50 -51 47 -56 -3 -5 2
-9 10 -9 9 0 16 -5 16 -10 0 -6 30 -40 66 -75 36 -36 63 -65 61 -65 -2 0 18
-24 44 -52 27 -29 49 -58 49 -64 0 -7 6 -14 13 -17 16 -6 153 -200 218 -310
68 -112 150 -274 194 -382 45 -109 86 -227 81 -232 -2 -3 -12 20 -21 49 -60
182 -206 475 -336 668 -224 334 -541 656 -871 884 -54 37 -98 72 -98 77 0 6
-5 7 -10 4 -6 -3 -13 1 -16 9 -3 9 -9 14 -13 11 -4 -2 -8 3 -8 12 0 13 4 12
17 -5 10 -12 20 -19 22 -16z m-464 -13 c-12 -12 -24 -21 -26 -18 -3 3 -15 -3
-26 -12 -12 -10 -6 -2 12 18 18 20 39 36 48 36 11 0 9 -6 -8 -24z m-2497 -123
c-52 -50 -98 -90 -103 -90 -5 0 -6 -4 -3 -10 3 -5 1 -10 -4 -10 -17 0 -13 15
9 35 25 22 25 34 3 51 -14 10 -16 17 -7 30 16 28 33 28 45 1 10 -21 15 -24 33
-16 12 6 26 20 32 32 5 12 15 21 21 20 5 -1 21 9 33 22 13 14 26 25 29 25 3
-1 -36 -41 -88 -90z m1576 56 c10 -9 -765 -6 -817 4 -27 5 126 7 383 6 235 -2
430 -6 434 -10z m1176 -74 c52 -29 75 -48 69 -54 -12 -12 -35 -1 -27 12 3 4
-3 7 -13 6 -9 0 -16 5 -14 12 1 8 -2 11 -7 7 -15 -9 -73 24 -65 37 5 8 2 9
-10 5 -10 -4 -24 1 -35 12 -11 11 -23 16 -27 13 -4 -4 -4 -1 0 6 8 14 8 14
129 -56z m1449 -19 c10 -9 18 -21 18 -27 0 -6 -7 0 -16 12 -15 22 -47 28 -78
16 -9 -3 -13 -11 -9 -17 4 -6 1 -7 -7 -2 -10 6 -9 11 5 22 25 18 65 16 87 -4z
m-105 -60 c-3 -10 -5 -4 -5 12 0 17 2 24 5 18 2 -7 2 -21 0 -30z m-1244 9 c-1
-5 5 -9 15 -8 9 0 16 -5 14 -12 -1 -8 2 -11 7 -7 15 9 64 -26 53 -37 -11 -11
-124 61 -116 74 7 12 30 3 27 -10z m-2656 -8 c9 -23 -11 -38 -26 -20 -13 16
-7 36 10 36 5 0 12 -7 16 -16z m1031 -124 c299 0 452 -4 442 -10 -9 -6 -222
-10 -550 -10 -599 0 -564 3 -667 -75 l-48 -37 -5 -116 c-3 -64 -3 -141 -2
-170 4 -53 4 -53 24 -35 21 18 21 18 5 -12 -8 -17 -105 -118 -214 -225 -109
-107 -233 -232 -275 -278 -61 -65 -82 -82 -105 -82 -23 0 -65 -37 -252 -225
l-223 -225 -113 0 c-89 0 -115 3 -125 15 -19 22 -7 28 24 11 20 -10 51 -12
114 -9 l87 5 225 223 c154 153 233 225 250 227 17 2 87 66 223 204 l197 201 0
74 c0 41 -3 97 -6 126 l-7 51 -59 4 c-52 3 -61 0 -74 -19 -18 -29 -54 -31 -54
-4 0 35 38 51 122 51 l78 0 0 109 0 109 68 62 c110 102 219 171 269 169 27 0
27 -1 -7 -13 -55 -20 -158 -90 -242 -164 l-76 -67 1 -105 2 -105 63 -3 62 -3
0 110 0 110 31 29 c17 16 56 44 87 63 53 32 63 34 159 37 l103 4 2 61 2 62 3
-62 4 -63 457 0z m1062 111 c0 -5 -7 -14 -15 -21 -18 -15 -42 1 -31 19 8 13
46 15 46 2z m1894 -15 c3 8 11 12 17 8 13 -8 -15 -34 -37 -34 -25 0 -65 20
-59 29 3 6 19 4 39 -4 30 -13 35 -13 40 1z m-4614 -1 c0 -2 -20 -18 -45 -35
-25 -17 -45 -27 -45 -23 0 5 19 20 43 35 47 30 47 30 47 23z m549 -24 c17 -11
7 -41 -13 -41 -19 0 -29 17 -22 35 6 17 15 18 35 6z m2258 -7 c8 -20 -8 -36
-26 -25 -15 10 -8 41 9 41 6 0 13 -7 17 -16z m-3267 -14 c-6 -11 -15 -18 -21
-14 -6 4 -6 11 2 20 17 21 31 17 19 -6z m3931 -41 c108 -82 315 -274 311 -289
-1 -6 1 -9 6 -6 5 3 31 -17 57 -44 32 -32 58 -50 75 -51 17 -1 19 -3 8 -6 -18
-5 -24 -19 -10 -25 13 -6 114 -128 105 -128 -4 0 -1 -5 7 -10 8 -5 10 -10 4
-10 -19 0 -77 68 -69 82 5 7 4 10 0 5 -12 -10 -85 63 -85 86 0 10 -5 15 -10
12 -6 -4 -9 -1 -8 7 2 7 -2 12 -8 11 -7 -1 -77 59 -155 133 -79 75 -185 168
-236 207 -78 60 -101 87 -77 87 3 0 41 -27 85 -61z m-1026 42 c3 -5 2 -12 -3
-15 -5 -3 -9 1 -9 9 0 17 3 19 12 6z m34 -24 c8 -10 7 -14 -2 -14 -8 0 -14 6
-14 14 0 7 1 13 2 13 2 0 8 -6 14 -13z m-2599 -14 c0 -5 -17 -21 -38 -37 l-37
-29 34 36 c36 39 41 42 41 30z m437 -254 c7 -9 8 -20 3 -28 -10 -17 -3 -39 23
-68 10 -12 17 -28 14 -35 -4 -9 -6 -8 -6 3 -1 9 -10 24 -21 34 -11 10 -20 24
-20 31 0 7 -6 19 -12 26 -10 9 -12 46 -8 138 l5 125 5 -106 c3 -60 10 -112 17
-120z m2063 211 c8 -5 12 -11 10 -14 -3 -2 -14 2 -24 10 -22 15 -10 19 14 4z
m-2600 -39 c0 -5 -12 -17 -27 -26 l-28 -18 24 27 c26 28 31 31 31 17z m2055
-51 c25 -11 -559 -11 -595 0 -14 4 110 7 275 8 165 0 309 -3 320 -8z m75 6 c0
-2 -9 -6 -20 -9 -11 -3 -18 -1 -14 4 5 9 34 13 34 5z m-787 -13 c-7 -2 -21 -2
-30 0 -10 3 -4 5 12 5 17 0 24 -2 18 -5z m-1458 -49 c-209 -193 -423 -439
-550 -634 -43 -65 -146 -241 -173 -293 -8 -16 -16 -26 -19 -24 -6 7 50 116
105 207 83 135 210 313 296 415 65 78 318 335 328 335 5 0 18 9 30 20 12 11
24 20 27 20 3 0 -16 -21 -44 -46z m-418 -66 c-41 -46 -87 -96 -101 -113 -14
-16 -26 -25 -26 -18 0 18 181 212 198 213 2 0 -30 -37 -71 -82z m5816 -242
l247 -254 0 -1326 c0 -877 -3 -1326 -10 -1326 -7 0 -10 446 -10 1318 l0 1317
-245 252 c-222 228 -261 273 -237 273 4 0 119 -114 255 -254z m-6523 236 c0
-5 -110 -119 -245 -255 l-245 -246 -2 -1128 c-1 -1073 -1 -1130 17 -1156 17
-26 17 -28 0 -47 -20 -23 -45 -26 -63 -8 -17 17 -15 57 3 64 13 5 15 142 15
1142 l0 1137 252 252 c139 139 256 253 260 253 5 0 8 -4 8 -8z m3540 -22 c10
-6 -148 -10 -455 -10 -307 0 -465 4 -455 10 9 6 188 10 455 10 267 0 446 -4
455 -10z m-1952 -152 c2 -19 -2 -28 -18 -33 -24 -8 -50 10 -50 35 0 24 10 31
40 28 19 -2 26 -10 28 -30z m3111 -2 c0 -7 -2 -7 -5 1 -6 13 -35 6 -46 -11 -4
-6 -8 -1 -8 12 0 13 4 21 9 17 5 -3 13 -1 16 5 8 13 35 -6 34 -24z m-1346 17
c-56 -2 -151 -2 -210 0 -59 1 -13 3 102 3 116 0 164 -2 108 -3z m-2043 -20 c0
-5 43 -7 96 -5 60 2 94 0 90 -6 -3 -6 -63 -10 -136 -10 -104 0 -130 3 -130 14
0 10 13 14 40 14 22 0 40 -3 40 -7z m-137 -10 c-29 -2 -78 -2 -110 0 -32 2 -8
3 52 3 61 0 87 -1 58 -3z m-182 -16 c-6 -8 -9 -17 -6 -20 3 -4 2 -5 -2 -2 -4
3 -20 -7 -37 -22 -18 -17 -15 -10 9 15 36 39 61 59 36 29z m-526 -92 c-219
-289 -396 -689 -484 -1088 l-19 -88 22 7 c50 15 273 107 294 120 22 15 23 14
20 -6 -2 -19 -30 -33 -167 -86 -90 -35 -166 -66 -169 -69 -30 -30 -53 -600
-33 -810 16 -177 42 -338 55 -351 6 -6 84 -42 174 -79 l162 -69 0 -81 c0 -44
4 -85 9 -91 4 -5 11 -27 14 -49 4 -33 4 -36 -5 -17 -6 12 -17 22 -23 22 -17 0
-25 24 -14 41 11 17 12 129 1 146 -4 6 -27 19 -52 29 -25 9 -92 37 -149 61
-57 24 -106 42 -108 39 -6 -5 29 -146 58 -234 12 -35 19 -65 17 -68 -7 -6 -63
165 -88 265 -60 238 -84 448 -84 726 0 582 140 1087 436 1568 74 121 165 244
181 244 7 0 -14 -36 -48 -82z m1595 -20 c0 -42 -60 -57 -74 -18 -9 23 2 51 22
56 27 6 52 -12 52 -38z m2176 -21 c-9 -25 -24 -7 -18 22 4 23 6 24 14 10 5
-10 7 -24 4 -32z m-913 29 c-73 -2 -193 -2 -265 0 -73 1 -14 3 132 3 146 0
205 -2 133 -3z m-1863 -23 c0 -6 -72 -10 -195 -10 l-195 0 0 -300 0 -300 124
0 c110 0 126 2 150 21 25 19 26 20 26 2 0 -11 -6 -28 -14 -39 -13 -17 -26 -19
-150 -17 l-136 3 0 -79 0 -79 -116 -113 c-63 -63 -128 -132 -143 -155 -24 -37
-29 -40 -38 -25 -6 9 -41 32 -77 50 -36 18 -66 39 -66 47 0 23 24 16 85 -27
l59 -41 138 139 138 139 0 72 0 72 -41 0 c-55 0 -72 -11 -156 -99 -48 -50 -72
-70 -73 -58 0 9 37 55 83 102 l82 85 53 0 52 0 0 180 0 181 -27 -21 c-29 -21
-208 -208 -231 -242 -9 -12 -12 -31 -8 -53 6 -28 3 -38 -15 -52 -24 -20 -98
-171 -164 -335 -33 -81 -44 -122 -46 -171 -1 -35 1 -69 5 -75 3 -6 2 -13 -4
-17 -5 -3 -10 -28 -10 -56 0 -48 0 -49 33 -51 l32 -1 -32 -4 c-30 -4 -33 -7
-33 -38 0 -18 -3 -40 -6 -49 -12 -32 -24 -15 -24 34 0 33 -4 50 -12 51 -7 0
-3 4 10 9 19 8 22 17 22 58 0 48 -1 49 -39 60 -58 18 -69 15 -74 -15 -4 -27
-4 -27 -6 4 -1 21 -10 38 -28 53 l-28 21 27 -4 c25 -4 26 -1 33 49 3 28 9 64
13 78 l7 26 33 -20 c38 -23 42 -39 8 -33 -28 6 -40 -12 -49 -70 -5 -34 -3 -39
21 -48 15 -6 41 -13 57 -16 l30 -5 1 62 c1 34 7 82 14 106 15 52 10 58 -71 89
-27 11 -49 25 -49 33 0 9 7 11 21 7 14 -5 25 -1 34 12 14 17 14 17 15 -3 0
-13 14 -28 40 -43 l40 -22 50 107 c28 59 62 140 76 180 16 43 32 74 40 74 8 0
14 7 14 16 0 8 -5 12 -11 8 -6 -3 -15 0 -20 7 -13 21 -11 29 6 23 10 -4 15 0
15 11 0 10 65 83 145 164 l145 147 0 107 0 107 205 0 c130 0 205 -4 205 -10z
m156 -30 c1 -26 1 -28 -3 -7 -4 26 -7 27 -59 27 -31 0 -54 4 -54 10 0 7 22 10
58 8 l57 -3 1 -35z m3910 14 c2 -12 -1 -13 -12 -3 -7 6 -11 16 -8 21 7 11 17
3 20 -18z m28 -35 c-3 -5 -10 -7 -15 -3 -5 3 -7 10 -3 15 3 5 10 7 15 3 5 -3
7 -10 3 -15z m-1005 -22 c13 -16 5 -27 -21 -27 -18 0 -25 20 -11 33 10 10 19
8 32 -6z m-2843 -8 c8 -14 -21 -43 -35 -35 -19 12 -13 46 8 46 11 0 23 -5 27
-11z m629 -81 c-181 -190 -233 -241 -258 -254 -15 -8 -25 -19 -22 -25 4 -5 3
-8 -2 -7 -10 3 -154 -146 -373 -387 -80 -87 -173 -189 -207 -226 -58 -63 -63
-72 -63 -114 0 -51 14 -85 34 -85 26 0 37 -25 25 -59 -9 -26 -16 -31 -44 -31
-19 0 -41 7 -49 16 -20 20 -21 58 -1 74 10 9 15 32 15 76 0 59 -2 64 -22 65
l-23 2 23 4 c21 4 174 156 342 338 142 155 660 675 672 675 7 0 -14 -28 -47
-62z m962 25 c-109 -2 -285 -2 -390 0 -106 1 -16 2 198 2 215 0 301 -1 192 -2z
m-1480 -50 c-3 -10 -5 -4 -5 12 0 17 2 24 5 18 2 -7 2 -21 0 -30z m691 -50
c-13 -16 -28 -7 -28 16 0 27 12 33 26 13 8 -12 9 -21 2 -29z m1252 11 c0 -8
-9 -14 -20 -14 -22 0 -28 26 -7 33 16 6 27 -1 27 -19z m1514 -76 c-7 -12 -34
10 -31 25 1 7 -5 11 -13 9 -8 -2 -12 0 -8 4 4 4 2 14 -4 23 -7 9 4 1 25 -18
20 -19 34 -38 31 -43z m-3226 -61 c4 -20 -25 -34 -39 -20 -14 14 1 45 20 41 9
-2 17 -11 19 -21z m2219 12 c14 -14 6 -39 -12 -39 -18 0 -28 17 -21 35 6 18
18 19 33 4z m-2021 -10 c9 -16 -12 -33 -31 -25 -14 5 -15 9 -5 21 15 18 26 19
36 4z m1774 -4 c0 -16 -27 -32 -37 -22 -3 4 -3 13 0 22 8 20 37 20 37 0z
m-3440 -65 c32 -32 25 -66 -17 -89 -44 -23 -83 -1 -83 46 0 57 61 82 100 43z
m5158 -13 c12 -24 11 -31 -2 -53 -18 -26 -42 -30 -81 -12 -29 13 -31 27 -9 69
13 25 20 30 47 27 23 -2 35 -10 45 -31z m-5414 8 c-4 -8 -8 -15 -10 -15 -2 0
-4 7 -4 15 0 8 4 15 10 15 5 0 7 -7 4 -15z m686 -10 c17 -21 5 -45 -24 -45
-27 0 -42 26 -25 46 15 18 33 18 49 -1z m4278 -20 c4 -19 3 -19 -10 -1 -13 17
-15 17 -21 2 -9 -23 -27 -20 -27 5 0 16 5 20 27 17 19 -2 29 -10 31 -23z
m-4578 -48 c8 -3 -2 -6 -22 -6 -21 -1 -38 3 -38 8 0 11 33 20 40 10 3 -3 12
-9 20 -12z m4487 -49 c-3 -7 -5 -2 -5 12 0 14 2 19 5 13 2 -7 2 -19 0 -25z
m-3439 -1 c4 -21 -25 -34 -40 -19 -8 8 -8 16 2 27 16 19 34 15 38 -8z m2768
-16 c-10 -16 -36 -13 -43 5 -8 22 18 37 36 20 7 -8 10 -19 7 -25z m671 -33
c-3 -7 -5 -2 -5 12 0 14 2 19 5 13 2 -7 2 -19 0 -25z m-140 -8 c75 0 123 -4
123 -10 0 -11 -226 -13 -250 -2 -8 4 -16 14 -18 22 -3 12 -1 13 9 3 9 -9 51
-13 136 -13z m278 -38 c-6 -7 -35 18 -35 31 0 5 9 2 20 -8 11 -10 18 -20 15
-23z m40 -34 c5 4 5 1 1 -6 -6 -10 -11 -10 -22 -1 -8 6 -14 14 -14 16 0 3 6 0
13 -6 8 -6 18 -7 22 -3z m-4492 -77 c-2 -6 0 -10 5 -10 37 6 45 -33 10 -52
-19 -10 -25 -8 -44 17 -22 26 -22 30 -7 46 17 19 40 19 36 -1z m5314 -23 c-3
-8 -6 -5 -6 6 -1 11 2 17 5 13 3 -3 4 -12 1 -19z m-226 -4 c2 2 4 -6 4 -19 0
-29 -21 -21 -28 11 -3 18 -1 22 8 14 6 -5 14 -8 16 -6z m-3453 -99 c122 -29
198 -82 267 -185 57 -86 101 -180 277 -590 76 -179 145 -331 153 -339 20 -20
41 -7 66 41 13 24 129 273 259 553 l236 510 157 3 157 3 0 -756 0 -755 -120 0
-120 0 -2 517 c-3 454 -5 518 -18 521 -11 2 -49 -74 -142 -285 -69 -158 -173
-392 -229 -520 l-104 -232 -121 -1 -121 0 -88 210 c-92 221 -114 260 -146 260
-34 0 -55 -35 -77 -128 -38 -163 -105 -257 -226 -313 -76 -36 -217 -52 -342
-39 -93 10 -134 23 -190 61 -80 54 -126 140 -165 308 -19 78 -20 94 -8 102 17
11 198 69 216 69 7 0 15 -12 19 -27 46 -213 70 -268 128 -294 99 -45 217 -2
247 89 20 61 6 154 -37 240 -40 81 -138 187 -341 370 -73 65 -99 96 -124 147
-29 59 -31 71 -27 137 11 160 122 283 293 324 70 17 198 17 273 -1z m-2340
-26 c3 -28 -16 -43 -43 -33 -15 6 -21 45 -8 58 16 16 48 1 51 -25z m5937 -9
c0 -18 -6 -26 -23 -28 -24 -4 -38 18 -28 44 3 9 15 14 28 12 17 -2 23 -10 23
-28z m142 -82 c-3 -8 -6 -5 -6 6 -1 11 2 17 5 13 3 -3 4 -12 1 -19z m-132 -66
l140 -59 5 26 c5 21 8 14 18 -34 17 -88 32 -232 30 -295 -1 -35 -2 -42 -5 -20
-15 165 -26 258 -33 276 -5 12 -20 24 -35 28 -16 4 -23 11 -19 18 4 7 3 8 -5
4 -13 -8 -53 2 -47 12 2 4 -6 8 -17 8 -34 3 -207 85 -201 96 3 5 11 7 18 4 6
-2 74 -31 151 -64z m142 16 c-3 -7 -5 -2 -5 12 0 14 2 19 5 13 2 -7 2 -19 0
-25z m-5155 -48 c124 0 187 -3 183 -10 -8 -12 -475 -14 -475 -2 0 19 17 24 59
18 24 -3 129 -6 233 -6z m3931 -7 c-7 -2 -19 -2 -25 0 -7 3 -2 5 12 5 14 0 19
-2 13 -5z m-4343 -68 c0 -21 -19 -28 -36 -15 -10 9 -11 16 -3 26 12 15 39 8
39 -11z m4885 5 c0 -8 -8 -16 -17 -18 -13 -2 -18 3 -18 18 0 15 5 20 18 18 9
-2 17 -10 17 -18z m-4356 -62 c-1 -7 -1 -60 0 -118 l1 -105 95 2 95 2 -1 -27
c0 -15 -3 -21 -6 -14 -3 8 -32 12 -93 12 l-88 0 -4 -66 c-2 -44 1 -68 9 -71 6
-3 50 -3 97 -1 l86 3 -1 -30 c0 -16 -3 -24 -6 -17 -4 9 -102 12 -443 12 l-439
0 -20 -27 c-33 -40 -36 -70 -15 -122 l20 -46 69 -6 c39 -4 148 -7 243 -8 l172
-1 0 -75 0 -75 100 0 100 0 0 75 c0 60 3 75 15 75 13 0 15 -26 15 -172 0 -173
-5 -218 -21 -218 -5 0 -9 50 -9 110 l0 110 -100 0 -100 0 -2 -67 -2 -68 -3 68
-4 67 -54 0 c-29 0 -60 3 -69 6 -14 5 -16 -6 -16 -80 0 -51 -4 -86 -10 -86 -6
0 -10 37 -10 90 l0 90 43 2 c23 1 58 2 77 2 27 1 35 5 34 19 -1 9 -2 37 -3 62
l-1 45 -234 0 c-231 0 -233 0 -267 24 -82 59 -125 80 -164 80 -46 1 -45 2 -45
-64 l0 -50 47 0 c44 0 51 -4 104 -56 55 -55 58 -56 130 -64 41 -4 57 -8 37 -9
l-38 -1 0 -86 0 -86 35 4 c43 5 47 -8 5 -17 -28 -6 -30 -10 -31 -53 -1 -26 -1
-53 0 -59 1 -7 -6 -13 -15 -13 -9 0 -35 -5 -56 -12 l-40 -12 7 -50 c3 -28 10
-55 15 -60 5 -5 29 3 56 18 56 31 54 31 54 6 0 -14 -15 -27 -50 -45 -67 -34
-78 -32 -86 13 -19 112 -17 107 -54 104 l-35 -2 34 19 c19 10 38 27 42 37 7
18 8 18 8 0 1 -20 24 -18 84 6 26 10 28 14 22 47 -3 20 -14 42 -23 49 -13 10
-14 15 -4 21 9 5 12 30 10 87 l-3 79 -30 3 c-20 2 -47 20 -80 52 -57 56 -94
73 -139 65 l-31 -6 3 160 3 161 -41 0 -40 0 -1 -282 c-1 -178 -4 -268 -10
-243 -10 50 -10 640 1 715 6 47 7 39 9 -57 l1 -113 45 0 c29 0 45 4 45 13 0 6
5 4 11 -5 7 -12 22 -18 46 -18 31 0 43 8 91 60 l55 60 184 0 183 0 1 53 c1 85
17 104 18 21 l1 -70 60 4 c50 4 60 2 60 -12 0 -13 -11 -16 -60 -16 l-60 0 0
-65 0 -65 73 -1 c39 0 90 -2 112 -4 22 -2 68 -2 103 2 l62 5 0 63 0 62 -52 7
c-29 3 -73 6 -98 7 l-45 2 45 8 c25 4 69 8 98 8 l52 1 0 75 0 75 -101 0 c-76
0 -100 3 -97 13 3 8 35 13 101 15 96 3 97 3 97 27 0 16 6 25 15 25 9 0 15 -6
14 -12z m3563 -31 c32 -50 -34 -104 -76 -61 -19 19 -21 55 -3 73 14 14 67 7
79 -12z m-3807 -26 c-6 -5 -38 -11 -72 -14 -50 -4 -61 -2 -56 9 4 10 24 14 71
14 38 0 62 -4 57 -9z m-254 -63 c-5 -40 -6 -41 -9 -10 -2 22 -9 32 -20 32 -9
0 -24 5 -32 10 -11 7 -4 10 25 10 l41 0 -5 -42z m-404 -21 c-6 -15 -20 -30
-29 -33 -14 -4 -18 -18 -20 -67 l-2 -62 -3 58 -4 57 -44 0 c-62 0 -56 16 9 24
38 5 60 14 76 32 28 29 34 26 17 -9z m4610 -184 c-2 -32 -3 -8 -3 52 0 61 1
87 3 58 2 -29 2 -78 0 -110z m-3397 98 c0 -6 -4 -12 -8 -15 -13 -8 -52 5 -46
15 7 12 54 12 54 0z m60 -10 c0 -4 -11 -8 -25 -9 -26 -2 -35 13 -12 21 14 5
37 -2 37 -12z m3600 -167 c0 -2 -30 -3 -67 -2 -62 1 -64 2 -23 7 43 6 90 3 90
-5z m185 6 c20 -5 -5 -8 -70 -7 -71 0 -89 2 -60 7 52 9 93 9 130 0z m168 -7
c-23 -2 -64 -2 -90 0 -26 2 -7 3 42 3 50 0 71 -1 48 -3z m224 -36 c4 -4 8 -17
10 -29 2 -12 2 -20 1 -17 -2 2 -14 16 -27 31 -17 20 -19 26 -7 24 8 -1 19 -5
23 -9z m-5707 -79 c0 -10 -4 -18 -10 -18 -5 0 -11 -10 -11 -22 l-2 -23 -4 23
c-2 12 -8 22 -13 22 -4 0 -3 16 3 35 9 31 11 33 23 17 7 -9 14 -25 14 -34z
m4878 -153 c-3 -3 -9 2 -12 12 -6 14 -5 15 5 6 7 -7 10 -15 7 -18z m-1 -87
c-3 -7 -5 -2 -5 12 0 14 2 19 5 13 2 -7 2 -19 0 -25z m-3527 -25 c0 -16 -9
-18 -85 -15 -47 2 -85 7 -85 12 0 5 37 11 83 13 45 1 83 4 85 5 1 1 2 -6 2
-15z m-620 0 c-100 -15 -93 -11 -87 -54 3 -21 1 -39 -4 -39 -5 0 -9 18 -9 40
0 33 -3 40 -19 40 -11 0 -23 5 -26 10 -4 6 25 10 82 9 48 -1 77 -3 63 -6z
m750 -7 c0 -10 -9 -14 -27 -12 -39 4 -42 26 -4 26 20 0 31 -5 31 -14z m60 4
c0 -5 -9 -10 -20 -10 -11 0 -20 5 -20 10 0 6 9 10 20 10 11 0 20 -4 20 -10z
m-1262 -108 c91 -95 97 -117 11 -41 -86 77 -106 89 -148 89 -29 0 -39 9 -26
22 3 3 27 3 53 1 43 -4 53 -11 110 -71z m373 -14 c1 -13 1 -29 0 -35 -1 -8 5
-10 16 -7 17 5 17 5 0 -6 -14 -9 -17 -19 -12 -41 l7 -30 -41 28 c-49 34 -52
53 -10 53 30 0 31 2 26 30 -4 17 -2 30 3 30 6 0 11 -10 11 -22z m745 -33 c23
-36 7 -68 -41 -82 -20 -7 -35 -9 -32 -7 3 3 -3 14 -14 25 -23 23 -24 47 -2 71
24 27 69 23 89 -7z m3315 15 c41 -23 16 -90 -35 -90 -22 0 -46 28 -46 54 0 41
38 58 81 36z m787 -198 c2 -14 -2 -22 -11 -22 -17 0 -26 19 -19 38 7 19 27 9
30 -16z m-5218 2 c0 -2 -7 -4 -15 -4 -8 0 -15 4 -15 10 0 5 7 7 15 4 8 -4 15
-8 15 -10z m354 -3 c8 -13 -20 -45 -32 -37 -20 12 -14 46 7 46 11 0 22 -4 25
-9z m863 -196 c91 -93 172 -180 180 -193 40 -59 -9 -16 -186 163 l-193 195
-249 0 c-138 1 -257 4 -265 7 -46 17 15 22 261 20 177 -1 275 2 276 8 1 6 4 1
6 -10 3 -10 80 -96 170 -190z m3406 178 c-7 -2 -19 -2 -25 0 -7 3 -2 5 12 5
14 0 19 -2 13 -5z m-4193 -58 c0 -8 -4 -15 -9 -15 -13 0 -22 16 -14 24 11 11
23 6 23 -9z m251 -198 c33 -42 39 -56 39 -98 l0 -49 119 0 120 0 195 -197
c107 -109 189 -199 183 -201 -7 -1 -98 83 -202 188 l-191 190 -112 0 c-109 0
-112 -1 -113 -22 l0 -23 -9 23 c-8 19 -17 22 -65 22 -53 0 -59 3 -105 46 l-49
46 -27 -31 c-29 -35 -40 -38 -66 -14 -25 23 -23 29 21 59 29 18 38 31 33 42
-3 10 31 -16 77 -56 80 -71 84 -73 129 -70 36 2 48 7 50 21 8 39 -12 69 -118
181 -124 130 -142 182 -23 65 41 -41 93 -96 114 -122z m-325 116 c-29 -24 -46
-29 -46 -13 0 6 0 13 0 18 0 4 6 7 13 7 6 0 18 6 25 13 8 7 18 9 24 5 7 -4 1
-15 -16 -30z m-108 -48 c-16 -13 -35 -28 -45 -33 -14 -8 -8 -26 52 -151 38
-77 72 -141 77 -141 5 0 23 7 40 16 26 14 29 19 24 46 l-6 31 30 -38 c16 -21
30 -49 30 -62 0 -17 25 -51 83 -111 45 -48 100 -106 122 -130 21 -23 44 -41
51 -38 7 3 10 -2 7 -15 -3 -10 -8 -19 -12 -19 -17 0 -260 258 -266 283 -8 31
-15 33 -55 12 -35 -18 -35 -17 -14 -57 10 -19 12 -34 6 -40 -10 -10 -59 77
-159 285 -46 96 -60 117 -75 114 -11 -3 -18 0 -18 9 0 9 11 14 28 14 15 0 45
11 67 25 51 31 68 31 33 0z m432 -1 c0 -8 -4 -12 -10 -9 -5 3 -10 13 -10 21 0
8 5 12 10 9 6 -3 10 -13 10 -21z m808 -76 c53 -57 162 -170 242 -253 183 -188
368 -385 363 -385 -29 0 -110 80 -462 455 -269 287 -267 285 -252 285 7 0 56
-46 109 -102z m-1642 66 c8 -31 -7 -48 -35 -39 -20 6 -29 43 -14 58 16 16 43
6 49 -19z m5904 -14 c0 -18 -36 -38 -48 -26 -10 11 -10 51 1 58 17 10 47 -10
47 -32z m-376 -35 c-4 -8 -8 -15 -10 -15 -2 0 -4 7 -4 15 0 8 4 15 10 15 5 0
7 -7 4 -15z m-19 -25 c3 -5 1 -10 -4 -10 -6 0 -11 5 -11 10 0 6 2 10 4 10 3 0
8 -4 11 -10z m-38 -95 c-7 -13 -14 -20 -15 -14 -2 5 2 16 8 24 18 21 20 18 7
-10z m-361 -20 c-1 -8 -5 -17 -8 -21 -5 -4 -4 16 1 34 3 9 9 -1 7 -13z m217 0
c-3 -9 -8 -14 -10 -11 -3 3 -2 9 2 15 9 16 15 13 8 -4z m-343 -25 c0 -6 -45
-10 -116 -10 l-116 0 -74 -72 c-41 -39 -74 -68 -74 -63 0 4 -8 2 -17 -5 -10
-7 21 26 68 73 l86 87 122 0 c74 0 121 -4 121 -10z m17 -32 c-3 -8 -6 -5 -6 6
-1 11 2 17 5 13 3 -3 4 -12 1 -19z m443 12 c0 -5 -2 -10 -4 -10 -3 0 -8 5 -11
10 -3 6 -1 10 4 10 6 0 11 -4 11 -10z m-147 -15 c-3 -9 -8 -14 -10 -11 -3 3
-2 9 2 15 9 16 15 13 8 -4z m124 -14 c0 -11 -5 -18 -9 -15 -4 3 -5 11 -1 19 7
21 12 19 10 -4z m-1147 5 c0 -2 -8 -10 -17 -17 -16 -13 -17 -12 -4 4 13 16 21
21 21 13z m1104 -66 c4 0 10 10 15 22 4 12 10 17 13 12 3 -5 -7 -34 -23 -64
-19 -34 -28 -45 -24 -28 3 15 0 30 -5 33 -6 4 -8 11 -5 16 3 5 -2 6 -11 2 -13
-5 -15 -3 -9 7 5 8 4 11 -3 6 -17 -10 -62 15 -62 36 0 18 5 17 54 -11 29 -17
56 -31 60 -31z m-1445 -59 c-30 -32 -61 -61 -69 -65 -15 -7 30 44 85 95 49 46
42 33 -16 -30z m-3114 -11 c0 -20 -6 -26 -27 -28 -24 -3 -28 0 -28 21 0 30 9
39 35 35 14 -2 20 -10 20 -28z m971 -9 c-4 -6 -16 -11 -27 -11 -21 0 -27 35
-6 43 16 6 41 -18 33 -32z m3299 4 c0 -31 -49 -28 -53 3 -3 20 0 23 25 20 20
-2 28 -8 28 -23z m-885 2 c0 -2 -17 -19 -37 -38 l-38 -34 34 38 c33 34 41 42
41 34z m-2281 -271 c146 -145 276 -268 289 -275 19 -10 32 -41 17 -41 -15 0
-63 44 -58 53 3 6 1 7 -5 3 -7 -4 -50 30 -105 83 -52 50 -96 91 -98 91 -2 0
-3 -53 -1 -118 l3 -117 42 3 43 4 -4 66 -4 67 26 -24 26 -24 0 -167 0 -167 53
-50 c101 -96 34 -88 777 -88 621 0 657 1 693 19 53 26 56 15 4 -15 l-42 -24
-550 -3 -550 -3 -1 -99 c-1 -83 1 -100 15 -103 10 -3 8 -5 -6 -6 -22 -1 -23 1
-23 104 l0 105 -83 0 c-108 0 -158 18 -240 86 l-67 56 0 114 0 114 -29 0 c-16
0 -43 -3 -60 -6 l-31 -6 0 -98 c0 -54 3 -106 6 -114 9 -24 170 -156 243 -201
45 -26 80 -40 120 -45 l56 -6 -55 -5 c-44 -4 -64 0 -99 19 -79 42 -150 93
-223 161 l-71 67 2 112 2 112 -55 0 -56 0 0 -116 0 -117 86 -81 c48 -44 125
-109 172 -144 50 -37 75 -61 62 -59 -12 2 -25 9 -29 16 -5 7 -12 13 -17 14 -5
1 -8 6 -6 11 2 5 -3 6 -11 3 -24 -9 -251 195 -269 242 -5 14 -6 69 -2 127 l7
101 -29 7 c-40 10 -54 24 -54 52 0 33 29 31 56 -3 18 -23 28 -27 65 -25 83 5
79 -3 79 149 l0 136 -145 147 c-129 131 -161 170 -138 170 3 0 126 -119 272
-264z m2523 141 c-50 -50 -94 -88 -97 -85 -4 3 35 50 87 103 51 53 94 92 96
85 3 -7 -36 -53 -86 -103z m-324 37 c-1 -5 -9 -9 -16 -10 -10 -2 -11 1 -1 12
12 14 24 13 17 -2z m-4892 -186 c104 -106 288 -294 409 -417 146 -149 215
-225 206 -229 -9 -3 -63 45 -145 129 -451 462 -671 692 -674 700 -11 30 35
-12 204 -183z m4874 157 c0 -2 -7 -8 -15 -15 -12 -10 -15 -10 -15 2 0 8 7 15
15 15 8 0 15 -1 15 -2z m-1875 -25 c17 -19 17 -21 0 -40 -24 -27 -59 -22 -63
8 -4 25 13 52 33 52 6 0 20 -9 30 -20z m87 -42 c-19 -20 -24 -21 -32 -8 -13
20 -12 30 1 30 5 0 7 5 4 10 -14 23 8 31 28 11 l21 -21 -22 -22z m1248 10 c0
-10 -7 -18 -15 -18 -8 0 -15 9 -15 20 0 11 -5 20 -11 20 -8 0 -7 5 2 16 12 14
14 14 26 -2 7 -10 13 -26 13 -36z m478 -7 c-24 -31 -48 -47 -48 -32 0 9 57 61
67 61 2 0 -6 -13 -19 -29z m-985 -68 c-112 -2 -294 -2 -405 0 -112 1 -21 2
202 2 223 0 314 -1 203 -2z m800 -123 c-31 -33 -58 -60 -61 -60 -3 0 8 15 24
33 17 17 41 47 53 65 12 18 26 30 31 27 4 -3 -17 -32 -47 -65z m-2383 15 c26
-31 -13 -82 -44 -56 -21 18 -20 48 2 60 23 14 28 13 42 -4z m388 3 c30 -30 0
-75 -43 -64 -19 5 -25 13 -25 35 0 15 3 31 7 34 11 11 48 8 61 -5z m2163 2
c18 -10 28 -59 12 -61 -5 0 -18 -2 -30 -5 -12 -2 -25 1 -28 6 -3 6 1 7 9 4 11
-4 16 0 16 14 0 28 -16 36 -29 15 -6 -10 -11 -13 -11 -6 0 11 26 43 36 43 3 0
14 -5 25 -10z m416 -16 c8 -22 -10 -49 -32 -49 -10 0 -22 7 -28 16 -15 24 -1
49 28 49 15 0 28 -7 32 -16z m1902 -250 c-208 -208 -269 -263 -269 -240 0 12
496 493 503 489 5 -3 -100 -115 -234 -249z m-3251 179 c-103 -2 -274 -2 -380
0 -106 1 -22 2 187 2 209 0 296 -1 193 -2z m-1705 -134 c23 -37 -25 -68 -53
-34 -10 12 -37 15 -119 16 -79 1 -98 3 -76 10 17 5 65 7 108 6 56 -2 81 1 89
10 14 17 38 13 51 -8z m2737 -10 c0 -23 -44 -53 -65 -45 -21 8 -19 17 10 48
27 30 55 28 55 -3z m368 22 c21 -13 11 -55 -15 -59 -30 -4 -49 31 -27 52 18
18 24 19 42 7z m-3548 -25 c0 -12 -14 -14 -77 -10 -116 8 -126 23 -15 24 73 0
92 -3 92 -14z m160 4 c0 -12 -3 -13 -62 -15 -34 -1 -48 2 -48 12 0 9 16 13 55
13 30 0 55 -4 55 -10z m3701 3 c-11 -5 -11 -7 0 -14 11 -7 10 -9 -3 -9 -10 0
-18 7 -18 15 0 8 8 15 18 14 12 0 13 -2 3 -6z m156 -8 c0 -10 -10 -15 -29 -15
-18 0 -28 5 -28 15 0 10 10 15 28 15 19 0 29 -5 29 -15z m-2024 -2 c-62 -2
-165 -2 -230 0 -65 1 -14 3 112 3 127 0 180 -2 118 -3z m1047 -21 c97 -12 36
-24 -90 -16 -97 5 -120 10 -120 22 0 15 57 14 210 -6z m-2384 -68 c-25 -22
-26 -28 -26 -117 l0 -94 48 -50 c26 -27 76 -83 111 -124 48 -56 38 -48 -40 34
-57 59 -107 108 -111 107 -5 0 -8 -25 -8 -55 0 -54 0 -54 73 -126 42 -41 56
-60 35 -44 -21 15 -38 32 -38 37 0 5 -4 7 -8 4 -5 -3 -23 9 -39 27 l-31 32 -7
155 c-4 85 -3 165 2 177 12 31 57 83 62 70 2 -6 -8 -21 -23 -33z m1799 -44
c-4 -6 -175 -10 -479 -10 -367 0 -476 -3 -483 -12 -19 -24 -7 -99 17 -110 8
-4 212 -7 453 -7 274 -1 437 -5 437 -11 0 -6 -161 -9 -438 -7 -433 2 -438 2
-437 -18 2 -12 1 -14 -2 -4 -5 20 -58 30 -152 28 -42 -1 -68 3 -77 13 -13 12
-6 14 48 14 35 0 79 1 98 2 l35 2 -4 51 c-2 37 -6 48 -14 40 -6 -6 -17 -11
-24 -11 -23 0 -14 16 20 32 27 13 102 16 520 17 323 1 486 -2 482 -9z m882
-72 c-2 -18 -4 -6 -4 27 0 33 2 48 4 33 2 -15 2 -42 0 -60z m-1810 -160 c-3
-8 -6 -5 -6 6 -1 11 2 17 5 13 3 -3 4 -12 1 -19z m2577 -29 c33 -39 33 -44 -4
-81 -25 -24 -36 -29 -58 -23 -54 13 -71 77 -30 115 31 29 62 25 92 -11z
m-1054 -90 c0 -21 -7 -23 -29 -10 -12 8 -12 12 -2 25 16 19 31 12 31 -15z
m-2833 -59 c8 -29 214 -160 396 -252 114 -57 148 -68 170 -54 22 14 52 -3 52
-30 0 -13 -8 -20 -27 -22 -16 -2 -28 1 -28 7 0 5 -24 17 -52 26 -128 41 -559
291 -566 329 -5 25 48 22 55 -4z m474 0 c36 -20 13 -76 -28 -68 -22 4 -29 43
-13 64 15 17 16 17 41 4z m2603 -12 c-5 -7 -3 -8 6 -3 17 11 31 -15 19 -37
-11 -20 -44 -24 -55 -6 -5 7 -2 9 7 4 8 -4 5 -1 -5 8 -16 13 -17 18 -6 31 15
18 45 21 34 3z m-1504 -51 l65 -3 -72 -2 c-64 -2 -73 0 -73 16 0 11 3 13 8 5
4 -7 37 -14 72 -16z m-2800 -98 c23 -41 -38 -68 -63 -27 -8 12 -7 21 2 32 19
22 48 20 61 -5z m5932 4 c51 -46 -12 -135 -74 -102 -29 15 -38 28 -38 58 0 54
71 82 112 44z m-3415 -9 c-3 -3 -12 -4 -19 -1 -8 3 -5 6 6 6 11 1 17 -2 13 -5z
m336 -1 c-45 -2 -122 -2 -170 0 -48 1 -11 3 82 3 94 0 133 -2 88 -3z m-1863
-39 c0 -2 -7 -4 -15 -4 -8 0 -15 4 -15 10 0 5 7 7 15 4 8 -4 15 -8 15 -10z
m985 -44 c27 -27 47 -50 44 -50 -3 0 -27 23 -54 50 -27 28 -47 50 -44 50 3 0
27 -22 54 -50z m2210 -80 c0 -18 -6 -26 -23 -28 -13 -2 -25 3 -28 12 -10 26 4
48 28 44 17 -2 23 -10 23 -28z m-3031 -216 c8 -21 -1 -34 -24 -34 -10 0 -21 4
-24 9 -10 16 5 41 24 41 10 0 21 -7 24 -16z m1851 -4 c-3 -5 -2 -10 4 -10 6 0
8 -7 5 -15 -4 -8 -16 -15 -28 -15 -16 0 -22 7 -24 25 -1 21 3 25 24 25 14 0
23 -4 19 -10z"/>
<path d="M6870 8195 c-79 -79 -142 -146 -140 -148 3 -2 37 -21 75 -42 39 -21
101 -58 139 -82 37 -24 70 -42 72 -40 3 2 3 106 2 231 l-3 226 -145 -145z m78
-39 c5 -24 -10 -38 -31 -30 -17 6 -23 35 -10 48 12 12 38 1 41 -18z"/>
<path d="M6389 7733 c-13 -16 -12 -17 4 -4 9 7 17 15 17 17 0 8 -8 3 -21 -13z"/>
<path d="M4170 6898 l0 -113 60 60 c64 65 69 74 43 71 -10 0 -18 5 -17 12 1 6
2 26 3 43 1 23 5 30 16 25 8 -3 15 -1 15 4 0 6 -27 10 -60 10 l-60 0 0 -112z"/>
<path d="M7400 6956 c0 -2 8 -10 18 -17 15 -13 16 -12 3 4 -13 16 -21 21 -21
13z"/>
<path d="M2819 6033 c-13 -16 -12 -17 4 -4 9 7 17 15 17 17 0 8 -8 3 -21 -13z"/>
<path d="M4315 5695 c-68 -35 -74 -90 -17 -159 71 -86 384 -363 421 -373 32
-8 55 8 59 40 2 14 -11 68 -29 119 -73 214 -143 324 -233 368 -52 25 -156 27
-201 5z"/>
<path d="M2513 5323 c-25 -3 -40 -14 -64 -49 -40 -58 -69 -76 -116 -72 l-38 3
-3 -73 -3 -72 31 0 c37 0 97 29 167 81 l52 39 133 0 c183 0 178 -2 178 75 0
62 0 63 -31 69 -33 6 -251 6 -306 -1z"/>
<path d="M2550 4340 c-9 -6 -10 -10 -3 -10 6 0 15 5 18 10 8 12 4 12 -15 0z"/>
<path d="M6844 3898 l-29 -33 33 29 c17 17 32 31 32 33 0 8 -8 1 -36 -29z"/>
<path d="M4280 3306 c0 -8 5 -18 10 -21 6 -3 10 1 10 9 0 8 -4 18 -10 21 -5 3
-10 -1 -10 -9z"/>
<path d="M6709 3763 c-13 -16 -12 -17 4 -4 16 13 21 21 13 21 -2 0 -10 -8 -17
-17z"/>
<path d="M6619 3673 l-24 -28 28 24 c15 14 27 26 27 28 0 8 -8 1 -31 -24z"/>
<path d="M7988 2515 c-18 -41 3 -75 47 -75 44 0 65 34 47 75 -9 20 -19 25 -47
25 -28 0 -38 -5 -47 -25z m36 -12 c-2 -10 0 -25 6 -33 9 -13 11 -13 20 0 6 9
10 10 10 3 0 -31 -45 -24 -55 8 -7 20 1 39 15 39 4 0 6 -8 4 -17z"/>
</g>
</svg>
